Coordinates
version=1
nRows=38
nColumns=38
inDegrees=no

Units are S.I. units (second, meters, Newtons, ...)
If the header above contains a line with 'inDegrees', this indicates whether rotational values are in degrees (yes) or radians (no).

endheader
time	pelvis_tilt	pelvis_list	pelvis_rotation	pelvis_tx	pelvis_ty	pelvis_tz	hip_flexion_r	hip_adduction_r	hip_rotation_r	knee_angle_r	ankle_angle_r	subtalar_angle_r	mtp_angle_r	hip_flexion_l	hip_adduction_l	hip_rotation_l	knee_angle_l	ankle_angle_l	subtalar_angle_l	mtp_angle_l	lumbar_extension	lumbar_bending	lumbar_rotation	arm_flex_r	arm_add_r	arm_rot_r	elbow_flex_r	pro_sup_r	wrist_flex_r	wrist_dev_r	arm_flex_l	arm_add_l	arm_rot_l	elbow_flex_l	pro_sup_l	wrist_flex_l	wrist_dev_l
0	2.44571	1.319	-0.821369	0.875211	-0.417296	0.953508	0.18737	0.178053	-0.269864	0.285242	-0.116536	0	0	-0.020876	-0.19569	0.0593943	1.16995	0.214535	0	0	-0.491541	0.230304	0.0450805	0.515326	-0.452344	0.198622	1.08395	0.837035	0	0	0.530265	-0.388014	0.271826	0.986968	0.761174	0	0
0.01	2.45005	1.32339	-0.83017	0.876504	-0.407009	0.956132	0.182152	0.176745	-0.257039	0.295228	-0.106587	0	0	-0.00127914	-0.185926	0.0672814	1.15439	0.225418	0	0	-0.495534	0.223744	0.0485113	0.51689	-0.451915	0.19762	1.08408	0.836899	0	0	0.532701	-0.388653	0.272179	0.987152	0.759994	0	0
0.02	2.46111	1.32636	-0.845534	0.877785	-0.396283	0.958954	0.173316	0.174577	-0.248085	0.303653	-0.0960986	0	0	0.0140861	-0.177003	0.0728083	1.13264	0.237191	0	0	-0.500142	0.217217	0.0506317	0.517757	-0.451291	0.198237	1.08461	0.837019	0	0	0.532615	-0.38985	0.270635	0.988201	0.759617	0	0
0.03	2.47659	1.32851	-0.865076	0.879045	-0.385439	0.961796	0.161988	0.172049	-0.241223	0.309815	-0.0857649	0	0	0.0274198	-0.168986	0.0763765	1.10656	0.250924	0	0	-0.505287	0.210431	0.0526158	0.518115	-0.450875	0.199023	1.08575	0.836647	0	0	0.532246	-0.391282	0.269428	0.989764	0.75968	0	0
0.04	2.49411	1.33055	-0.886743	0.880336	-0.374544	0.964471	0.149276	0.169546	-0.235311	0.313834	-0.0757073	0	0	0.0401346	-0.161844	0.0777401	1.07742	0.265682	0	0	-0.510007	0.202987	0.0554385	0.516917	-0.451029	0.198385	1.08809	0.83564	0	0	0.532674	-0.392912	0.270579	0.991256	0.759511	0	0
0.05	2.51257	1.333	-0.909611	0.881677	-0.363638	0.966898	0.136247	0.166825	-0.230628	0.316444	-0.0655209	0	0	0.0530285	-0.155308	0.077012	1.04615	0.28002	0	0	-0.513496	0.194688	0.05854	0.51476	-0.45141	0.196976	1.08998	0.835617	0	0	0.533431	-0.394951	0.273586	0.992458	0.758755	0	0
0.06	2.53223	1.33577	-0.934012	0.883063	-0.352743	0.969091	0.123342	0.163613	-0.227103	0.318757	-0.0545293	0	0	0.0660931	-0.149363	0.0740577	1.01301	0.291858	0	0	-0.516046	0.185604	0.0620168	0.512105	-0.451727	0.194967	1.0916	0.836241	0	0	0.5344	-0.397256	0.278341	0.993522	0.757686	0	0
0.07	2.5537	1.33819	-0.960714	0.884426	-0.341876	0.971128	0.110044	0.160036	-0.223644	0.321102	-0.0429932	0	0	0.078805	-0.144332	0.0685181	0.978577	0.300767	0	0	-0.51849	0.176129	0.066003	0.509525	-0.452025	0.192813	1.09308	0.836945	0	0	0.535292	-0.399509	0.283627	0.994857	0.756153	0	0
0.08	2.57657	1.34	-0.989391	0.885727	-0.331045	0.973028	0.0966231	0.156188	-0.21921	0.32445	-0.0306982	0	0	0.0908	-0.140366	0.0603255	0.942861	0.306702	0	0	-0.521148	0.166554	0.0705993	0.507228	-0.452583	0.190841	1.09469	0.837386	0	0	0.535996	-0.401268	0.28836	0.996409	0.753584	0	0
0.09	2.60084	1.34097	-1.01981	0.886955	-0.320225	0.974821	0.0829957	0.152087	-0.214403	0.329098	-0.0177371	0	0	0.101608	-0.137164	0.0503905	0.905952	0.310795	0	0	-0.524167	0.157185	0.0751512	0.50565	-0.453235	0.19003	1.09602	0.837514	0	0	0.5361	-0.40269	0.292159	0.997946	0.750247	0	0
0.1	2.62621	1.34094	-1.0515	0.888077	-0.309392	0.976536	0.0687683	0.147869	-0.208702	0.334527	-0.00435046	0	0	0.110828	-0.134065	0.0402745	0.867602	0.313981	0	0	-0.527508	0.148393	0.0792339	0.505118	-0.453828	0.190847	1.09645	0.837144	0	0	0.535275	-0.403954	0.29448	0.998956	0.747662	0	0
0.11	2.65231	1.3399	-1.0839	0.889061	-0.298513	0.97817	0.0538244	0.143558	-0.202493	0.340377	0.00900638	0	0	0.11832	-0.131241	0.0298843	0.827799	0.316254	0	0	-0.531146	0.140333	0.0827438	0.505525	-0.45434	0.192836	1.09575	0.837041	0	0	0.53348	-0.404869	0.294788	0.999641	0.744928	0	0
0.12	2.6782	1.33839	-1.11559	0.889865	-0.28763	0.979624	0.0393486	0.138918	-0.196297	0.347667	0.0228154	0	0	0.125327	-0.128574	0.0194593	0.787967	0.317704	0	0	-0.534523	0.133146	0.0855194	0.506409	-0.45479	0.195314	1.09488	0.837048	0	0	0.531281	-0.405263	0.293876	0.999501	0.741209	0	0
0.13	2.70293	1.33664	-1.14551	0.890503	-0.276768	0.980824	0.0257045	0.134194	-0.189498	0.356131	0.0373458	0	0	0.132301	-0.125794	0.00972917	0.74826	0.318002	0	0	-0.537377	0.126837	0.087841	0.507242	-0.455233	0.197555	1.09437	0.837073	0	0	0.529723	-0.405352	0.294741	0.997994	0.737936	0	0
0.14	2.72759	1.33479	-1.17482	0.890974	-0.265923	0.98177	0.012906	0.129209	-0.181621	0.365877	0.0524408	0	0	0.139097	-0.12262	0.000452461	0.707796	0.316339	0	0	-0.539797	0.120955	0.0897497	0.507711	-0.455526	0.198818	1.09435	0.837022	0	0	0.528608	-0.405251	0.296696	0.995992	0.735003	0	0
0.15	2.7524	1.33289	-1.20355	0.891247	-0.255114	0.982472	0.00104132	0.123964	-0.172694	0.37698	0.0677962	0	0	0.145853	-0.118932	-0.00805541	0.666903	0.31227	0	0	-0.541946	0.115486	0.0909344	0.508115	-0.455865	0.199728	1.09468	0.836993	0	0	0.52737	-0.405072	0.298694	0.994231	0.731317	0	0
0.16	2.7776	1.33144	-1.23197	0.891362	-0.244311	0.982876	-0.00905734	0.118156	-0.163529	0.390537	0.0840067	0	0	0.15323	-0.114156	-0.0146771	0.626229	0.305106	0	0	-0.543224	0.11008	0.0911303	0.508666	-0.456095	0.200843	1.09462	0.837046	0	0	0.525469	-0.405174	0.299596	0.993318	0.726922	0	0
0.17	2.80324	1.33051	-1.25986	0.891342	-0.233473	0.982984	-0.0175767	0.111863	-0.15529	0.405979	0.101076	0	0	0.161198	-0.108698	-0.0204067	0.585588	0.297867	0	0	-0.543448	0.104605	0.0902176	0.509059	-0.456099	0.201955	1.09395	0.837349	0	0	0.52342	-0.405578	0.300596	0.992397	0.724078	0	0
0.18	2.82931	1.32997	-1.28755	0.891229	-0.222552	0.982795	-0.0251784	0.105194	-0.148246	0.422568	0.119254	0	0	0.169071	-0.102481	-0.0245495	0.544119	0.289228	0	0	-0.542703	0.0989211	0.0885906	0.509135	-0.456035	0.203191	1.0929	0.83761	0	0	0.521032	-0.405952	0.301153	0.991663	0.721463	0	0
0.19	2.85961	1.32928	-1.3192	0.891112	-0.211611	0.982457	-0.0333294	0.0974481	-0.14214	0.438823	0.137526	0	0	0.173766	-0.0931877	-0.0219743	0.497523	0.277084	0	0	-0.542084	0.0919594	0.0863391	0.509098	-0.455698	0.204617	1.09156	0.837594	0	0	0.518718	-0.40667	0.3016	0.991498	0.718259	0	0
0.2	2.88548	1.32884	-1.3462	0.890929	-0.200497	0.981762	-0.0416145	0.0905496	-0.137557	0.453651	0.155599	0	0	0.18064	-0.0861277	-0.0232503	0.455595	0.266968	0	0	-0.54012	0.0860456	0.0844558	0.50803	-0.456084	0.206509	1.09104	0.837042	0	0	0.51589	-0.407023	0.302043	0.991687	0.715757	0	0
0.21	2.91005	1.32837	-1.37206	0.890717	-0.189277	0.980819	-0.050313	0.0836	-0.134205	0.467623	0.174217	0	0	0.186696	-0.0791238	-0.0232821	0.413098	0.259255	0	0	-0.537703	0.0803264	0.0830791	0.506192	-0.456725	0.207861	1.09098	0.836544	0	0	0.512673	-0.406999	0.302133	0.992266	0.714871	0	0
0.22	2.9321	1.32738	-1.39543	0.890479	-0.177953	0.979698	-0.0603566	0.0772596	-0.131126	0.479596	0.192583	0	0	0.191924	-0.0728622	-0.0229895	0.371773	0.253807	0	0	-0.535572	0.0753037	0.082087	0.503835	-0.457478	0.208543	1.09142	0.836066	0	0	0.508621	-0.40676	0.300941	0.993777	0.713824	0	0
0.23	2.94904	1.32585	-1.41386	0.89021	-0.166505	0.978414	-0.071906	0.0722638	-0.128103	0.489222	0.210252	0	0	0.196492	-0.068004	-0.0224437	0.331717	0.249835	0	0	-0.533808	0.0715309	0.0817844	0.501217	-0.458583	0.209216	1.09229	0.834941	0	0	0.504232	-0.406147	0.29834	0.995626	0.714189	0	0
0.24	2.95955	1.32366	-1.4259	0.889838	-0.15493	0.977026	-0.085075	0.0689732	-0.125239	0.496718	0.226938	0	0	0.200456	-0.0647907	-0.0222166	0.293453	0.245841	0	0	-0.532542	0.0695434	0.0818252	0.498723	-0.459671	0.209975	1.09321	0.833854	0	0	0.499231	-0.405578	0.295372	0.998261	0.714204	0	0
0.25	2.96378	1.32076	-1.43166	0.889395	-0.143227	0.975619	-0.0997909	0.0674207	-0.122553	0.50251	0.242407	0	0	0.202352	-0.0627579	-0.0196871	0.253983	0.239146	0	0	-0.531851	0.0692493	0.0821417	0.496228	-0.460357	0.21027	1.094	0.833543	0	0	0.493985	-0.405414	0.293409	1.0013	0.712695	0	0
0.26	2.96175	1.31755	-1.43143	0.888933	-0.131378	0.974219	-0.115696	0.0677539	-0.118774	0.506402	0.256665	0	0	0.20353	-0.0625438	-0.0188936	0.215742	0.230433	0	0	-0.531336	0.0704679	0.0831001	0.493417	-0.460966	0.210494	1.09483	0.834197	0	0	0.488869	-0.405263	0.292394	1.00324	0.712351	0	0
0.27	2.95594	1.31395	-1.42781	0.888483	-0.119351	0.972852	-0.132891	0.0692987	-0.114147	0.508538	0.269645	0	0	0.203331	-0.0634894	-0.020456	0.178373	0.220232	0	0	-0.531042	0.0724928	0.0843343	0.49051	-0.461283	0.211181	1.09536	0.835122	0	0	0.483364	-0.405274	0.291518	1.00475	0.713087	0	0
0.28	2.94866	1.31022	-1.42295	0.888024	-0.107165	0.97148	-0.151297	0.0714076	-0.108923	0.508595	0.281486	0	0	0.201374	-0.0647803	-0.0240388	0.140628	0.208422	0	0	-0.530744	0.0747229	0.0850852	0.487883	-0.460808	0.212385	1.09509	0.83685	0	0	0.476618	-0.405018	0.28853	1.00664	0.713178	0	0
0.29	2.94139	1.30645	-1.41817	0.887537	-0.0948162	0.970074	-0.170972	0.0735125	-0.103728	0.506521	0.292795	0	0	0.198077	-0.0659671	-0.0311684	0.103692	0.197313	0	0	-0.530578	0.076859	0.0849529	0.485706	-0.459657	0.214433	1.09448	0.839158	0	0	0.468019	-0.404272	0.281145	1.00935	0.715945	0	0
0.3	2.93309	1.30239	-1.41243	0.887075	-0.082331	0.968662	-0.192615	0.0760563	-0.0985446	0.501297	0.303251	0	0	0.192887	-0.0672701	-0.0400168	0.0673812	0.188094	0	0	-0.531164	0.0790633	0.0842619	0.48397	-0.458043	0.217058	1.09416	0.841849	0	0	0.45794	-0.403359	0.26967	1.01313	0.72224	0	0
0.31	2.92135	1.29831	-1.40324	0.886622	-0.0698115	0.967226	-0.215569	0.0795553	-0.0933821	0.493335	0.312133	0	0	0.186667	-0.0692278	-0.0497471	0.0321754	0.180752	0	0	-0.532286	0.0819545	0.0835455	0.482916	-0.456249	0.220128	1.09372	0.844945	0	0	0.448025	-0.402189	0.256673	1.01693	0.730368	0	0
0.32	2.90496	1.29433	-1.38897	0.886131	-0.0572772	0.965756	-0.239642	0.0842417	-0.0886642	0.482023	0.3194	0	0	0.180484	-0.072184	-0.0603588	5.08497e-09	0.174744	0	0	-0.533645	0.0860882	0.0834463	0.481804	-0.454867	0.222708	1.09346	0.848114	0	0	0.440105	-0.400714	0.245572	1.01945	0.73888	0	0
0.33	2.88373	1.29127	-1.36846	0.885547	-0.0447264	0.964168	-0.26312	0.0900584	-0.0862913	0.46907	0.325737	0	0	0.179656	-0.0761882	-0.0788024	0	0.176839	0	0	-0.533983	0.0918731	0.0844558	0.479136	-0.454637	0.223292	1.09426	0.849588	0	0	0.435718	-0.398861	0.239993	1.01947	0.741782	0	0
0.34	2.86402	1.28586	-1.34808	0.884894	-0.0326479	0.962664	-0.288699	0.095517	-0.086027	0.455955	0.331327	0	0	0.191512	-0.0813533	-0.0984448	0	0.180521	0	0	-0.53759	0.0979267	0.0866368	0.476176	-0.455208	0.222077	1.09562	0.851084	0	0	0.435567	-0.396258	0.238431	1.0175	0.744526	0	0
0.35	2.84413	1.28215	-1.32758	0.884251	-0.0201957	0.961079	-0.312667	0.101087	-0.0856781	0.442809	0.33527	0	0	0.195102	-0.0858616	-0.118417	0	0.18339	0	0	-0.539053	0.103533	0.0897179	0.472209	-0.455675	0.218855	1.09693	0.852374	0	0	0.436598	-0.393315	0.238624	1.01445	0.747915	0	0
0.36	2.82596	1.27887	-1.30909	0.883662	-0.00763799	0.959492	-0.335823	0.105667	-0.0856538	0.430598	0.338404	0	0	0.196621	-0.0895256	-0.137211	0	0.18655	0	0	-0.540182	0.108089	0.0926708	0.469474	-0.455386	0.216164	1.09617	0.852827	0	0	0.437774	-0.391012	0.239496	1.01167	0.750654	0	0
0.37	2.80965	1.27622	-1.29332	0.88316	0.00504633	0.957913	-0.357418	0.10888	-0.0850621	0.420614	0.340816	0	0	0.19591	-0.0923294	-0.154879	0	0.189764	0	0	-0.540837	0.111231	0.0949862	0.469062	-0.4541	0.215577	1.09237	0.853209	0	0	0.437961	-0.389881	0.239752	1.01029	0.751057	0	0
